<?xml version="1.0" standalone="no"?>
<!DOCTYPE svg PUBLIC "-//W3C//DTD SVG 20010904//EN"
 "http://www.w3.org/TR/2001/REC-SVG-20010904/DTD/svg10.dtd">
<svg version="1.0" xmlns="http://www.w3.org/2000/svg"
 width="460.000000pt" height="126.000000pt" viewBox="0 0 460.000000 126.000000"
 preserveAspectRatio="xMidYMid meet">

<g transform="translate(0.000000,126.000000) scale(0.100000,-0.100000)"
fill="#000000" stroke="none">
<path d="M0 630 l0 -630 2300 0 2300 0 0 630 0 630 -2300 0 -2300 0 0 -630z
m3800 498 c0 -38 -32 -96 -58 -104 -55 -17 -144 -68 -166 -96 -15 -18 -41 -49
-60 -68 -50 -52 -114 -137 -122 -162 -4 -12 -27 -41 -53 -65 l-46 -42 37 -1
c32 0 39 4 53 33 19 41 132 112 152 95 7 -6 13 -18 13 -27 0 -23 -48 -68 -88
-82 -39 -13 -42 -35 -5 -42 47 -9 156 32 215 79 38 32 62 44 85 44 18 0 33 -3
33 -7 0 -17 -36 -43 -61 -43 -19 0 -34 -9 -48 -29 -31 -43 -27 -51 25 -51 58
0 108 23 141 67 14 18 41 50 59 70 19 20 34 40 34 43 0 4 -13 5 -30 2 -16 -2
-30 0 -30 4 0 10 97 54 117 54 6 0 40 30 75 66 66 69 108 103 245 197 99 69
124 80 159 67 24 -9 25 -13 19 -53 -9 -53 -29 -75 -132 -144 -80 -53 -230
-122 -266 -123 -18 0 -201 -179 -192 -188 2 -2 19 5 38 17 19 11 41 21 50 21
18 0 31 -32 23 -57 -3 -10 -1 -24 3 -32 8 -12 16 -13 53 -2 24 7 60 22 81 33
59 30 56 14 -5 -26 -97 -65 -178 -57 -178 15 0 27 -3 30 -22 24 -13 -4 -50
-23 -83 -43 -58 -35 -63 -37 -155 -37 -90 0 -95 1 -98 22 l-3 21 -42 -19 c-52
-23 -154 -26 -183 -4 -10 8 -37 15 -60 15 -39 0 -46 -5 -136 -99 -53 -55 -114
-109 -136 -120 -52 -26 -127 -45 -149 -37 -13 5 -3 13 40 31 67 27 190 129
185 154 -3 12 -15 16 -55 16 -66 -1 -112 -35 -148 -110 -14 -31 -30 -53 -35
-50 -19 12 -9 41 37 102 65 88 129 115 244 101 22 -3 39 13 117 107 50 61 126
150 168 199 l77 89 -124 -6 c-68 -4 -146 -13 -173 -20 -45 -12 -51 -17 -63
-53 -29 -87 -136 -158 -259 -171 -59 -6 -69 2 -59 53 8 44 59 103 110 125 63
28 313 86 396 93 116 9 183 34 276 105 122 91 163 104 163 49z m-2736 -24 c-2
-37 -65 -134 -139 -214 -28 -30 -83 -93 -122 -140 -40 -47 -88 -101 -108 -120
-20 -19 -40 -42 -45 -52 -9 -14 -6 -15 20 -5 17 6 45 24 62 39 43 37 77 38 70
3 -6 -32 1 -32 53 6 52 37 76 35 87 -8 5 -17 16 -34 26 -37 16 -5 81 18 122
44 70 45 182 86 202 74 15 -10 8 -48 -14 -71 -33 -35 -12 -28 87 30 95 55 119
87 68 87 -28 0 -53 15 -53 32 0 12 42 10 80 -4 33 -11 34 -11 97 58 34 38 67
75 73 82 12 14 50 17 50 3 0 -4 -28 -38 -61 -75 -34 -37 -59 -69 -57 -72 8 -8
370 -7 413 2 35 6 39 5 27 -8 -9 -11 -31 -16 -70 -16 -31 0 -138 -3 -237 -7
l-180 -7 -42 -44 c-64 -66 -90 -124 -57 -124 21 0 152 64 186 92 38 30 46 16
20 -34 -11 -23 -19 -45 -16 -50 7 -11 40 -10 64 2 11 6 30 15 42 21 58 30 159
66 163 58 3 -4 0 -17 -7 -28 -18 -30 -4 -35 48 -17 74 25 92 22 96 -16 4 -44
25 -46 84 -10 53 32 100 50 91 35 -15 -24 -92 -67 -143 -79 -51 -12 -57 -11
-75 7 -10 10 -19 24 -19 29 0 14 -20 12 -54 -5 -16 -9 -43 -16 -60 -18 -29 -2
-31 0 -29 30 3 36 -8 36 -57 3 -40 -27 -115 -52 -146 -48 -20 2 -33 12 -42 30
l-13 27 -32 -19 c-44 -26 -177 -40 -177 -18 0 8 7 23 15 34 28 38 11 46 -33
16 -15 -10 -45 -24 -66 -31 -21 -7 -59 -29 -83 -47 -50 -38 -78 -43 -92 -16
-7 14 -4 26 15 50 31 39 54 42 54 6 0 -34 11 -28 54 29 63 82 41 89 -75 22
-139 -80 -204 -91 -227 -40 -14 29 -27 28 -96 -7 -35 -17 -41 -18 -51 -5 -9
13 -14 13 -35 1 -14 -7 -49 -20 -77 -29 -29 -9 -53 -19 -53 -24 0 -5 -61 -74
-136 -154 -165 -178 -255 -247 -320 -247 l-27 0 7 61 c9 75 21 109 40 109 8 0
29 17 48 39 55 64 239 177 341 211 30 9 57 35 125 117 48 58 117 137 153 176
36 40 86 98 110 130 24 32 56 75 72 94 28 37 35 63 17 63 -15 0 -225 -126
-326 -196 -100 -69 -148 -118 -139 -142 10 -27 -24 -52 -72 -52 -41 0 -44 2
-37 23 18 57 71 100 322 259 190 121 225 139 267 135 27 -2 30 -5 29 -33z
m1314 -110 c-2 -10 -19 -29 -38 -42 -19 -13 -39 -32 -44 -43 -12 -25 -23 -24
-31 1 -4 14 3 31 24 57 50 61 99 76 89 27z m-618 -122 c0 -24 -28 -62 -45 -62
-23 0 -25 15 -5 48 21 35 50 43 50 14z m848 -205 c3 -21 -10 -39 -64 -91 -68
-66 -112 -93 -139 -82 -21 8 -19 39 6 70 26 33 49 34 49 1 0 -34 14 -31 39 8
11 18 29 41 40 51 22 20 19 36 -6 36 -9 0 -47 -18 -85 -40 -44 -25 -82 -40
-101 -39 l-32 1 30 10 c17 6 55 26 86 45 53 32 142 64 164 59 6 -1 11 -14 13
-29z"/>
<path d="M3691 1065 c-63 -46 -79 -72 -38 -60 48 15 117 69 117 92 0 21 -14
16 -79 -32z"/>
<path d="M4350 1043 c-82 -47 -237 -179 -225 -191 20 -20 177 68 253 141 78
77 64 102 -28 50z"/>
<path d="M3085 883 c-75 -17 -184 -97 -185 -135 0 -23 13 -22 91 2 69 21 139
82 139 120 0 20 -7 22 -45 13z"/>
<path d="M3473 663 c-16 -6 -17 -33 -3 -33 11 0 26 28 19 34 -2 2 -10 1 -16
-1z"/>
<path d="M485 478 c-98 -35 -325 -244 -325 -299 0 -27 15 -24 57 14 21 19 58
47 83 64 85 58 256 236 223 232 -4 0 -21 -5 -38 -11z"/>
</g>
</svg>
