<?xml version="1.0" standalone="no"?>
<!DOCTYPE svg PUBLIC "-//W3C//DTD SVG 20010904//EN"
 "http://www.w3.org/TR/2001/REC-SVG-20010904/DTD/svg10.dtd">
<svg version="1.0" xmlns="http://www.w3.org/2000/svg"
 width="586.000000pt" height="79.000000pt" viewBox="0 0 586.000000 79.000000"
 preserveAspectRatio="xMidYMid meet">

<g transform="translate(0.000000,79.000000) scale(0.100000,-0.100000)"
fill="#000000" stroke="none">
<path d="M5574 761 c-50 -30 -95 -91 -179 -242 l-80 -142 -80 -37 c-174 -82
-321 -117 -360 -86 -20 15 -20 15 1 53 12 21 36 46 54 57 28 16 37 17 72 7 56
-17 76 2 25 24 -58 24 -94 18 -208 -35 -197 -92 -378 -140 -414 -110 -8 7 -15
21 -15 32 0 17 4 19 28 12 71 -21 142 5 142 51 0 59 -103 72 -179 22 -44 -29
-79 -92 -64 -116 34 -55 156 -52 327 7 61 22 119 42 128 46 15 7 16 3 11 -27
-5 -32 -2 -37 25 -51 17 -9 53 -16 80 -16 66 0 218 40 320 84 l82 35 -21 -40
c-11 -23 -18 -47 -15 -55 8 -22 46 -16 67 10 21 27 139 109 146 102 2 -2 -5
-22 -16 -45 -25 -47 -27 -87 -6 -94 39 -16 405 123 405 153 0 16 -14 12 -92
-23 -104 -48 -227 -91 -235 -83 -4 4 5 31 20 62 36 73 35 84 -7 84 -33 0 -115
-37 -148 -67 -21 -19 -22 -14 -7 20 6 14 22 31 36 38 41 22 165 161 205 230
39 65 55 117 44 144 -8 21 -55 19 -92 -4z m61 -48 c-10 -41 -106 -181 -159
-233 -25 -24 -46 -40 -46 -36 0 21 116 222 147 257 43 47 68 52 58 12z m-1108
-359 c13 -34 -60 -58 -97 -34 -13 9 -12 13 9 30 29 25 79 26 88 4z"/>
<path d="M1881 743 c-35 -7 -110 -89 -156 -171 l-40 -72 -68 0 c-43 0 -66 -4
-62 -10 3 -5 31 -10 60 -10 l55 0 -27 -54 c-24 -50 -33 -57 -92 -85 -64 -29
-196 -81 -207 -81 -3 0 4 13 15 29 52 73 33 121 -48 121 -58 0 -121 -22 -262
-88 -105 -50 -159 -70 -159 -58 0 4 11 29 25 56 26 50 32 80 16 80 -4 0 -24
-12 -44 -27 -19 -16 -59 -46 -89 -69 -92 -71 -109 -65 -63 22 14 26 25 56 25
67 0 18 -5 19 -45 14 -25 -4 -64 -16 -88 -28 -49 -25 -269 -100 -275 -94 -3 2
39 75 93 160 53 86 100 166 103 177 4 18 2 20 -29 13 -19 -4 -62 -21 -97 -37
-53 -26 -71 -30 -118 -26 -50 4 -57 2 -71 -19 -35 -53 16 -69 109 -33 29 11
54 20 56 20 4 0 -48 -101 -106 -203 -54 -97 -56 -99 -126 -134 -166 -82 -212
-196 -80 -196 66 0 131 58 205 185 26 44 28 45 165 93 77 26 152 54 167 62 16
8 31 13 33 10 2 -2 -5 -25 -16 -51 -29 -64 -21 -86 34 -86 30 0 58 10 98 34
56 33 56 33 47 9 -22 -58 22 -57 166 3 61 25 147 62 193 81 90 38 115 39 120
6 4 -27 -48 -88 -87 -101 -32 -11 -41 -7 -41 18 0 10 -6 23 -14 29 -19 16 -58
-4 -54 -27 5 -28 67 -62 113 -62 58 0 180 34 285 79 l90 39 -6 -39 c-9 -55 6
-69 74 -69 59 0 167 33 307 94 43 19 81 34 83 32 2 -2 -6 -22 -17 -45 -29 -56
-28 -81 4 -81 26 0 201 55 269 84 42 19 43 17 21 -36 -5 -13 0 -21 18 -29 22
-10 29 -7 65 28 22 21 63 51 91 67 l51 27 -25 -48 c-14 -26 -25 -59 -23 -73 6
-50 66 -37 328 72 160 67 203 76 208 41 4 -27 -48 -88 -87 -101 -32 -11 -41
-7 -41 18 0 28 -25 43 -50 30 -29 -15 -22 -40 20 -68 31 -21 43 -23 100 -19
36 3 101 18 145 32 101 33 245 100 245 114 0 16 -16 13 -62 -10 -41 -21 -212
-89 -223 -89 -4 0 3 13 14 29 53 73 33 121 -49 121 -51 0 -95 -15 -285 -94
-178 -74 -200 -72 -150 9 61 99 -2 114 -128 31 -61 -40 -85 -48 -56 -19 15 15
4 43 -17 43 -9 0 -46 -14 -82 -31 -92 -44 -226 -90 -230 -79 -2 5 9 35 24 65
21 43 24 59 15 68 -14 14 -27 9 -239 -83 -162 -70 -234 -83 -240 -43 -4 27 34
103 62 123 12 8 37 29 57 47 34 31 39 32 130 35 114 4 126 22 16 26 l-77 3 40
52 c42 57 70 114 70 146 0 19 -28 43 -47 40 -4 -1 -19 -4 -32 -6z m49 -43 c0
-38 -112 -190 -140 -190 -17 0 -14 9 22 73 22 39 52 84 66 100 26 27 52 36 52
17z m-160 -224 c0 -2 -7 -9 -15 -16 -13 -11 -14 -10 -9 4 5 14 24 23 24 12z
m-1577 -318 c-51 -90 -143 -151 -143 -95 0 28 38 66 100 101 59 33 65 33 43
-6z"/>
<path d="M4450 645 c-13 -16 -23 -17 -95 -9 -44 5 -134 8 -200 8 -100 -1 -130
-5 -180 -24 -103 -39 -179 -141 -161 -215 8 -33 26 -23 26 14 0 15 10 43 23
61 47 71 157 98 317 81 55 -6 123 -11 151 -11 88 0 145 39 137 92 -3 20 -4 20
-18 3z"/>
<path d="M2156 565 c-19 -20 -20 -26 -3 -49 26 -36 84 4 61 42 -15 23 -38 26
-58 7z"/>
<path d="M4046 517 c-23 -35 -176 -434 -176 -459 0 -20 2 -20 14 -8 28 29 257
462 252 476 -9 24 -73 18 -90 -9z"/>
<path d="M2818 489 c-10 -5 -22 -28 -28 -50 -6 -22 -14 -47 -17 -55 -12 -31
27 -1 57 44 42 64 37 90 -12 61z"/>
</g>
</svg>
