<?xml version="1.0" encoding="UTF-8"?><svg id="Layer_1" xmlns="http://www.w3.org/2000/svg" viewBox="0 0 583.5 76.43"><defs><style>.cls-1{fill:#fff;}</style></defs><path class="cls-1" d="m183.34,26.45c.56.32.99.21,1.39.21,3.87,0,7.74.01,11.6,0,.89,0,1.74.11,2.54.51.34.17.63.4.65.83.01.49-.29.75-.69.93-.78.34-1.61.39-2.44.39-4.78,0-9.57,0-14.35-.04-.75,0-1.36.12-1.91.67-3.16,3.11-6.63,5.87-10.33,8.33-.75.5-1.29,1.12-1.69,1.92-1.25,2.5-2.71,4.91-3.35,7.67-.7,3.05.47,4.5,3.63,4.48,3.9-.03,7.5-1.33,11.05-2.74,7.12-2.85,14.19-5.81,21.13-9.08,2.28-1.08,4.63-2.02,6.95-3.02,1.23-.53,2.54-.81,3.87-.88,1.53-.09,2.12.62,1.91,2.12-.24,1.71-1.06,3.19-1.84,4.69-1.03,1.97-2.18,3.88-3.05,5.93-.61,1.44-.32,1.8,1.25,1.57,3.23-.48,6.24-1.68,9.27-2.82,5.08-1.92,10.12-3.93,15.08-6.15,1.11-.5,2.08-1.17,3.03-1.93,1.58-1.27,4.57-.5,5.43,1.33.27.57.05,1.05-.16,1.53-.49,1.11-1.34,1.97-2.06,2.92-.28.38-.73.7-.51,1.46.64-.5,1.21-.94,1.78-1.38,4.28-3.29,8.81-6.18,13.81-8.29,1.66-.7,3.39-1.15,5.22-.83,1.69.29,2.39,1.43,1.89,3.05-.65,2.1-1.84,3.95-2.82,5.89-.83,1.65-1.66,3.31-2.46,4.98-.43.91-.12,1.31.92,1.16,2.4-.34,4.69-1.09,6.95-1.9,7.58-2.71,14.97-5.86,22.29-9.2,5.01-2.28,10.23-4.11,15.82-4.58,1.58-.13,3.16-.12,4.69.36,2.35.74,3.67,2.83,3.38,5.26-.42,3.57-2.29,6.37-4.77,8.85-.18.18-.37.33-.54.51-.05.05-.06.15-.11.29.63.31,1.19-.04,1.74-.2,8.42-2.5,16.43-5.98,24.29-9.82.63-.31,1.26-.63,1.92-.88.62-.24,1.38-.48,1.77.25.39.73-.24,1.23-.79,1.61-.58.4-1.18.77-1.8,1.1-10.16,5.26-20.66,9.62-31.95,11.88-3.54.71-7.13,1.26-10.75.39-2.78-.67-5.02-2.13-6.68-4.44-.65-.9-.95-1.84-.25-2.85.89-1.28,2.16-1.75,3.68-1.59,1.17.13,1.84.83,2.16,1.93.25.85.17,1.71.22,2.57.07,1.12.64,1.6,1.78,1.53,1.45-.09,2.77-.51,4-1.24,3.38-2.02,5.94-4.74,7.21-8.5.82-2.42-.42-3.88-3-3.64-2.56.24-4.9,1.18-7.25,2.13-7.46,2.99-14.75,6.36-22.28,9.19-4.89,1.84-9.71,3.86-14.83,5.01-1.13.26-2.28.42-3.46.38-2.19-.07-3.29-1.31-2.96-3.45.54-3.5,2.46-6.42,4.12-9.45.31-.57.79-1.05.85-1.74-.41-.28-.74-.03-1.06.13-4.74,2.51-9.32,5.24-13.34,8.82-.81.72-1.5,1.53-2.18,2.37-1.24,1.54-4.84,1.07-5.67-.73-.23-.51-.08-1.04.09-1.56.63-1.91,1.5-3.73,2.32-5.57-.43-.37-.72.03-1.01.16-7.98,3.48-16.09,6.65-24.53,8.9-2.01.54-4.05.89-6.13,1.02-1.88.12-2.41-.4-2.31-2.27.08-1.34.55-2.57,1.11-3.76,1.1-2.3,2.28-4.56,3.72-6.69.08-.12.11-.28.26-.66-2.38.93-4.61,1.66-6.71,2.66-8.37,3.96-16.91,7.44-25.86,9.92-3.26.9-6.57,1.45-9.97,1.2-4.21-.31-6.09-2.8-5.21-6.86.35-1.64.98-3.19,1.82-4.99-1.17.58-2.1,1.04-3.04,1.5-9.11,4.46-18.49,8.19-28.5,10.17-3.58.71-7.22,1.28-10.88.4-2.73-.66-4.94-2.1-6.59-4.36-.68-.93-1.01-1.91-.27-2.96.9-1.28,2.19-1.72,3.7-1.54,1.23.14,1.93.92,2.14,2.08.14.76.14,1.55.2,2.33.11,1.35.69,1.82,2.05,1.63,2.07-.29,3.89-1.14,5.51-2.43,2.37-1.88,4.31-4.1,5.34-6.99.98-2.75-.26-4.26-3.18-3.92-3.19.37-6.02,1.75-8.92,2.97-9.54,4.02-18.76,8.82-28.74,11.78-1.83.54-3.68,1.06-5.63.72-1.44-.25-1.89-.83-1.52-2.23.32-1.19.77-2.34,1.18-3.5.15-.42.41-.81.13-1.29-.68.2-1.1.73-1.62,1.12-3.65,2.77-7.48,5.21-12.07,6.18-1.53.32-3.06.25-4.57-.14-1.43-.37-1.99-1.06-2.16-2.51-.19-1.65.35-3.17.94-4.66.89-2.22,2.07-4.3,3.22-6.4.13-.24.45-.47.24-.76-.21-.28-.52-.1-.8,0-.35.13-.74.19-1.05.38-5.13,3.2-11.03,4.49-16.63,6.52-5.14,1.86-10.35,3.54-15.55,5.27-.76.25-1.26.69-1.67,1.35-2.51,4.02-4.9,8.12-7.59,12.03-2.32,3.38-5.18,6.19-8.71,8.35-3.01,1.83-6.29,1.91-9.53,1.26-4.03-.82-5.41-4.32-3.39-7.88,1.7-2.99,4.41-4.99,7.12-6.98,4.11-3.02,8.79-4.95,13.46-6.91.89-.38,1.47-.95,1.95-1.78,5.42-9.39,10.68-18.85,15.52-28.54.14-.28.47-.6.19-.89-.32-.33-.6.07-.85.22-4.4,2.62-9.14,4-14.27,4.31-2.32.14-2.79-.65-2.57-2.71.09-.83.39-1.59.78-2.33.89-1.7,2.16-2.59,4.21-2.34,2.39.29,4.78.52,7.21.35,3.04-.21,5.71-1.37,8.29-2.8,2.73-1.51,5.49-2.93,8.65-3.33.74-.09,1.49-.14,2.24-.12,1.49.05,1.74.47.98,1.72-2.07,3.42-4.14,6.84-6.27,10.23-4.28,6.81-8.59,13.59-12.89,20.39-.42.66-.79,1.35-1.16,2.04-.13.24-.4.51-.13.77.24.24.54.05.82-.04,7.69-2.51,15.42-4.9,23.04-7.59,2.98-1.05,5.66-2.91,8.72-3.91,2.46-.8,4.92-1.51,7.56-1.18,1.61.2,1.95.68,1.52,2.21-.55,1.96-1.52,3.73-2.48,5.5-1.02,1.88-1.99,3.79-2.74,5.8-.16.44-.48.97-.08,1.39.38.4.95.22,1.42.11,2.65-.62,4.91-2,6.97-3.69,3.49-2.86,6.94-5.76,10.44-8.62.96-.79,2.02-1.47,3.34-1.53,1.13-.06,1.44.33,1.12,1.41-.89,2.93-2.4,5.59-3.75,8.32-.46.92-.92,1.84-1.35,2.78-.17.36-.45.79-.15,1.16.33.42.79.08,1.15-.03,2.76-.78,5.42-1.84,8.05-2.97,5.56-2.39,10.99-5.06,16.46-7.66,5.02-2.39,10.26-4.26,15.89-4.77,1.42-.13,2.84-.13,4.22.19,3.21.74,4.63,3.46,3.68,7.04-.76,2.87-2.41,5.21-4.51,7.26-.23.22-.58.35-.58.77.54.32,1.04,0,1.53-.14,8.38-2.49,16.33-5.99,24.22-9.69,2.05-.96,3.27-2.31,4.2-4.23,1.06-2.19,2.28-4.29,3.44-6.43.74-1.37.74-1.36-.88-1.37-2.7-.01-5.41,0-8.11-.07-.82-.02-2.1.08-2.07-1.03.02-1.14,1.28-1.08,2.18-1.08,3.12-.02,6.24-.06,9.36,0,1.14.02,1.78-.3,2.34-1.34,3.07-5.65,6.26-11.24,10.47-16.17,1.67-1.95,3.49-3.75,5.78-5.02,2.46-1.37,5.06-1.79,7.82-1.2,1.65.35,2.38,1.28,2.39,2.97,0,1.68-.5,3.24-1.14,4.76-2.21,5.22-5.62,9.67-9.3,13.94-.29.34-.6.67-.97,1.08Zm-6.01.65c.9-.09,1.71.1,2.39-.64,4.07-4.48,7.8-9.2,10.71-14.51.66-1.2,1.11-2.48,1.31-3.83.12-.84-.21-1.23-1.09-1.22-1.24.01-2.24.56-3.14,1.32-1.43,1.22-2.54,2.71-3.56,4.27-2.73,4.18-4.96,8.65-7.49,12.94-.28.48-.98.94-.67,1.48.31.55,1.07.13,1.53.19ZM20.37,57.94c-3.95,1.3-12.99,6.07-15.64,9.89-.4.58-.81,1.15-1.04,1.81-.64,1.84.36,3.32,2.32,3.44,2.01.12,3.6-.78,5.04-2.03,2.15-1.86,3.73-4.18,5.31-6.49,1.41-2.07,2.75-4.18,4.01-6.62Zm151.75-24.38c1.52-1.26,2.77-2.29,4.01-3.34.19-.16.37-.5,0-.55-.72-.08-1.63-.42-2.12.23-.75.99-1.5,2.03-1.89,3.66Z"/><path class="cls-1" d="m527.15,44.19c-5.25,2.62-10.62,4.82-16.07,6.79-6.25,2.26-12.61,4.15-19.25,4.9-3.56.4-7.14.54-10.66-.33-.72-.18-1.43-.45-2.09-.77-2.52-1.23-3.41-3.34-2.44-5.94.39-1.06.96-2.05,1.46-3.08-.53-.23-.84.14-1.19.3-8.71,3.8-17.59,7.14-26.94,9.07-5.07,1.05-10.18,1.54-15.33.44-.82-.18-1.59-.49-2.31-.89-2.48-1.38-3.18-3.26-2.21-5.91,2.6-7.14,10.57-11.96,18.2-10.97,1.4.18,2.75.59,3.93,1.43,2.68,1.9,2.82,5.34.18,7.31-3.83,2.86-9.77,3.55-13.33.5-.51-.44-.83-.37-1.12.25-1.75,3.81.06,5.64,3.28,5.83,5.13.3,10.1-.67,14.97-2.15,6.67-2.03,13.21-4.43,19.57-7.27,2.99-1.33,5.92-2.81,8.77-4.41,5.69-3.19,11.48-3.5,17.46-.98.27.11.53.24.77.4.5.32,1.25.52.94,1.35-.31.84-1.01,1.23-1.88,1.08-.73-.12-1.44-.4-2.14-.65-5.29-1.86-9.11-.76-12.52,3.67-1.16,1.51-2.13,3.14-2.57,5.02-.35,1.47.08,2.46,1.39,3.22,1.51.87,3.15.89,4.83.81,6.18-.29,11.99-2.1,17.72-4.24,6.33-2.36,12.56-4.98,18.72-7.75,1.58-.71,2.72-1.72,3.57-3.25,4.46-7.98,8.85-16.01,13.62-23.82,2.61-4.27,5.5-8.34,9.55-11.45,2.38-1.83,5.05-2.81,8.09-2.71,2.46.08,3.39,1.07,3.26,3.47-.11,2.09-.84,4.02-1.69,5.89-3.5,7.74-8.37,14.55-14.35,20.6-3.35,3.39-6.86,6.6-10.86,9.23-.97.64-1.69,1.41-2.19,2.44-.7,1.42-1.47,2.8-2.38,4.52.99-.38,1.49-.78,2.01-1.16,4.18-3.01,8.53-5.7,13.46-7.37,1.16-.39,2.34-.54,3.56-.38,1.74.23,2.55,1.37,2.09,3.06-.3,1.11-.81,2.15-1.38,3.16-1.34,2.37-2.64,4.75-3.74,7.24-.21.48-.69,1.07-.36,1.48.37.46,1.1.16,1.66.06,2.7-.49,5.29-1.38,7.87-2.31,7.08-2.53,13.92-5.6,20.71-8.78.67-.32,1.35-.63,2.06-.87.6-.2,1.16-.05,1.51.54.36.6-.03,1.06-.4,1.41-.41.39-.94.68-1.45.94-5.76,2.96-11.8,5.27-17.82,7.62-5.36,2.09-10.71,4.27-16.36,5.53-1.22.27-2.46.47-3.71.36-2.03-.17-2.96-1.39-2.57-3.37.3-1.54.85-3.01,1.56-4.4,1.04-2.06,2.13-4.09,3.19-6.14.14-.26.55-.53.21-.85-.23-.21-.56.01-.8.15-6.01,3.36-12.03,6.72-16.32,12.32-1.04,1.36-4.75.86-5.41-.7-.26-.62-.03-1.21.2-1.79.9-2.3,2.11-4.46,3.22-6.67.14-.28.45-.51.27-1.05Zm13.21-9.69c.46.15.64-.25.9-.47,7.1-6.09,12.83-13.31,17.66-21.23,1.43-2.35,2.83-4.75,3.35-7.51.3-1.61-.36-2.18-1.94-1.66-1.47.48-2.55,1.51-3.58,2.6-2.08,2.2-3.8,4.68-5.37,7.24-4.04,6.57-7.31,13.54-10.92,20.34-.11.2-.3.42-.1.7Zm-94.79,11.96c1.95,0,3.37-.33,4.42-1.01,1.3-.85,1.67-2.24.89-3.53-.65-1.08-1.71-1.56-2.9-1.67-3.43-.34-5.84,1.42-7.92,3.84-.43.5-.01.73.32.97,1.55,1.1,3.32,1.44,5.19,1.41Z"/><path class="cls-1" d="m407.92,21.03c-5.76-.08-11.26.38-16.41,2.68-5.67,2.54-9.14,6.7-9.37,13.1-.01.33-.07.66-.14.97-.12.51-.12,1.17-.82,1.2-.64.03-.87-.57-1.09-1.05-.97-2.13-.65-4.29.02-6.39,2.71-8.46,8.71-13.61,17.08-16.19,7.05-2.18,14.32-2.73,21.69-2.48,5.8.2,11.47,1.25,17.19,2.04,1.44.2,2.89.32,4.35.29,1.33-.03,2.29-.57,2.89-1.77.28-.56.57-1.39,1.41-1.06.81.31.84,1.11.7,1.9-.84,4.71-3.62,7.14-8.86,7.93-4.95.74-9.87.34-14.79-.14-4.67-.46-9.33-1.12-13.85-1.03Z"/><path class="cls-1" d="m408.02,23.68c1.22-.02,2.39.23,3.54.62,1.05.36,1.34,1,.8,2-1.35,2.5-2.66,5.02-4.03,7.51-6.76,12.31-13.53,24.61-20.31,36.91-.28.5-.58,1-.94,1.45-.37.46-.81.88-1.48.46-.58-.36-.68-.83-.5-1.48.76-2.69,1.81-5.29,2.82-7.89,4.61-11.92,9.22-23.85,14.16-35.64,1.31-3.14,2.5-3.93,5.95-3.93Z"/><path class="cls-1" d="m284.81,29.15c-.14.31-.31.78-.54,1.21-1.6,2.94-3.55,5.63-5.73,8.17-.49.57-1.05,1.06-1.76,1.34-.7.27-1.05.06-.92-.72.03-.2.1-.4.19-.58,1.04-2.12,1.58-4.38,2.1-6.67.54-2.39,2.77-4.1,5.23-4.1,1.08,0,1.55.38,1.43,1.36Z"/><path class="cls-1" d="m216.84,20.1c2.21,0,3.96,1.67,3.93,3.76-.02,2.01-1.84,3.71-3.91,3.66-2.14-.05-3.69-1.66-3.68-3.84,0-1.96,1.67-3.58,3.66-3.58Z"/></svg>